<svg width="1200" height="630" viewBox="0 0 1200 630" fill="none" xmlns="http://www.w3.org/2000/svg">
  <defs>
    <linearGradient id="bg" x1="58" y1="44" x2="1148" y2="594" gradientUnits="userSpaceOnUse">
      <stop stop-color="#071725"/>
      <stop offset="0.56" stop-color="#0C2031"/>
      <stop offset="1" stop-color="#14283E"/>
    </linearGradient>
    <radialGradient id="glowTeal" cx="0" cy="0" r="1" gradientUnits="userSpaceOnUse" gradientTransform="translate(255 154) rotate(39.4) scale(328 242)">
      <stop stop-color="#19D3C5" stop-opacity="0.22"/>
      <stop offset="1" stop-color="#19D3C5" stop-opacity="0"/>
    </radialGradient>
    <radialGradient id="glowAmber" cx="0" cy="0" r="1" gradientUnits="userSpaceOnUse" gradientTransform="translate(1036 516) rotate(-142.4) scale(286 216)">
      <stop stop-color="#FF9D4D" stop-opacity="0.16"/>
      <stop offset="1" stop-color="#FF9D4D" stop-opacity="0"/>
    </radialGradient>
    <pattern id="grid" width="48" height="48" patternUnits="userSpaceOnUse">
      <path d="M48 0H0V48" stroke="#8AB3C7" stroke-opacity="0.08" stroke-width="1"/>
    </pattern>
    <filter id="shadow" x="-20%" y="-20%" width="140%" height="140%" color-interpolation-filters="sRGB">
      <feDropShadow dx="0" dy="18" stdDeviation="24" flood-color="#020A12" flood-opacity="0.45"/>
    </filter>
    <filter id="soft" x="-20%" y="-20%" width="140%" height="140%" color-interpolation-filters="sRGB">
      <feDropShadow dx="0" dy="8" stdDeviation="18" flood-color="#021019" flood-opacity="0.28"/>
    </filter>
  </defs>

  <rect width="1200" height="630" fill="url(#bg)"/>
  <rect width="1200" height="630" fill="url(#grid)"/>
  <rect width="1200" height="630" fill="url(#glowTeal)"/>
  <rect width="1200" height="630" fill="url(#glowAmber)"/>

  <path d="M640 54V576" stroke="#86B6C7" stroke-opacity="0.16" stroke-width="1.5"/>
  <path d="M58 460H610" stroke="#FF7B67" stroke-width="4" stroke-linecap="round"/>
  <path d="M58 460H498" stroke="#20D6C7" stroke-opacity="0.28" stroke-width="14" stroke-linecap="round"/>
  <path d="M676 94H1128" stroke="#7EC0C5" stroke-opacity="0.18" stroke-width="1.5"/>
  <path d="M676 512H1128" stroke="#7EC0C5" stroke-opacity="0.18" stroke-width="1.5"/>

  <circle cx="88" cy="88" r="6" fill="#FF8154"/>
  <text x="110" y="97" fill="#D6E7F1" font-size="18" font-weight="600" font-family="'SF Pro Display','PingFang SC','Microsoft YaHei',sans-serif">OpenClaw × Hermes Agent / 中介者模式</text>

  <text x="72" y="188" fill="#F7F1E8" font-size="74" font-weight="700" letter-spacing="-1.6" font-family="'SF Pro Display','PingFang SC','Microsoft YaHei',sans-serif">多智能体协作</text>
  <text x="72" y="272" fill="#F7F1E8" font-size="68" font-weight="700" letter-spacing="-1.3" font-family="'SF Pro Display','PingFang SC','Microsoft YaHei',sans-serif">不是多开几个 Agent</text>

  <text x="78" y="350" fill="#B4CAD8" font-size="27" font-weight="500" font-family="'SF Pro Text','PingFang SC','Microsoft YaHei',sans-serif">真正的分水岭，不是 agent 数量，而是</text>
  <text x="78" y="392" fill="#D7E7EF" font-size="27" font-weight="600" font-family="'SF Pro Text','PingFang SC','Microsoft YaHei',sans-serif">控制平面、上下文治理、权限隔离和失败恢复。</text>

  <text x="78" y="498" fill="#F4F0E8" font-size="20" font-weight="600" font-family="'SF Pro Text','PingFang SC','Microsoft YaHei',sans-serif">中介者模式 / 控制平面 / 上下文隔离 / Worker 委派 / Retry Loop</text>
  <text x="78" y="530" fill="#8FB2C4" font-size="18" font-weight="500" font-family="'SF Pro Text','PingFang SC','Microsoft YaHei',sans-serif">把概率性规划装进一个确定性的系统外壳里。</text>

  <g filter="url(#soft)">
    <rect x="730" y="162" width="188" height="92" rx="18" fill="#102436" stroke="#54D3C8" stroke-opacity="0.58" stroke-width="2"/>
    <text x="768" y="198" fill="#88E2DA" font-size="18" font-weight="700" font-family="'SF Pro Text','PingFang SC','Microsoft YaHei',sans-serif">Control Plane</text>
    <text x="768" y="228" fill="#D5E3ED" font-size="16" font-weight="500" font-family="'SF Pro Text','PingFang SC','Microsoft YaHei',sans-serif">Policy / Budget / Approval</text>
  </g>

  <g filter="url(#shadow)">
    <rect x="684" y="124" width="84" height="44" rx="14" fill="#0D1E2E" stroke="#4BCFC2" stroke-opacity="0.42"/>
    <text x="706" y="152" fill="#9DDCD8" font-size="15" font-weight="600" font-family="'SF Pro Text','PingFang SC','Microsoft YaHei',sans-serif">Gateway</text>

    <rect x="684" y="190" width="84" height="44" rx="14" fill="#0D1E2E" stroke="#4BCFC2" stroke-opacity="0.42"/>
    <text x="704" y="218" fill="#CFE2EE" font-size="15" font-weight="600" font-family="'SF Pro Text','PingFang SC','Microsoft YaHei',sans-serif">Bindings</text>

    <rect x="684" y="256" width="84" height="44" rx="14" fill="#0D1E2E" stroke="#4BCFC2" stroke-opacity="0.42"/>
    <text x="706" y="284" fill="#CFE2EE" font-size="15" font-weight="600" font-family="'SF Pro Text','PingFang SC','Microsoft YaHei',sans-serif">Session</text>

    <rect x="684" y="322" width="84" height="44" rx="14" fill="#0D1E2E" stroke="#4BCFC2" stroke-opacity="0.42"/>
    <text x="703" y="350" fill="#CFE2EE" font-size="15" font-weight="600" font-family="'SF Pro Text','PingFang SC','Microsoft YaHei',sans-serif">Isolation</text>

    <rect x="952" y="124" width="102" height="44" rx="14" fill="#221D1B" stroke="#FFB26E" stroke-opacity="0.5"/>
    <text x="972" y="152" fill="#FFD0A1" font-size="15" font-weight="600" font-family="'SF Pro Text','PingFang SC','Microsoft YaHei',sans-serif">Supervisor</text>

    <rect x="952" y="190" width="102" height="44" rx="14" fill="#221D1B" stroke="#FFB26E" stroke-opacity="0.5"/>
    <text x="978" y="218" fill="#F1E1D0" font-size="15" font-weight="600" font-family="'SF Pro Text','PingFang SC','Microsoft YaHei',sans-serif">Delegate</text>

    <rect x="952" y="256" width="102" height="44" rx="14" fill="#221D1B" stroke="#FFB26E" stroke-opacity="0.5"/>
    <text x="977" y="284" fill="#F1E1D0" font-size="15" font-weight="600" font-family="'SF Pro Text','PingFang SC','Microsoft YaHei',sans-serif">Toolsets</text>

    <rect x="952" y="322" width="102" height="44" rx="14" fill="#221D1B" stroke="#FFB26E" stroke-opacity="0.5"/>
    <text x="985" y="350" fill="#F1E1D0" font-size="15" font-weight="600" font-family="'SF Pro Text','PingFang SC','Microsoft YaHei',sans-serif">Summary</text>
  </g>

  <path d="M768 146H804C817.255 146 828 156.745 828 170V162" stroke="#56D4C8" stroke-width="2.5" stroke-linecap="round"/>
  <path d="M768 212H812C821.941 212 830 203.941 830 194V194" stroke="#56D4C8" stroke-width="2.5" stroke-linecap="round"/>
  <path d="M768 278H818C825.732 278 832 271.732 832 264V264" stroke="#56D4C8" stroke-width="2.5" stroke-linecap="round"/>
  <path d="M768 344H805C819.359 344 831 332.359 831 318V254" stroke="#56D4C8" stroke-width="2.5" stroke-linecap="round"/>

  <path d="M918 170H948" stroke="#FFB26E" stroke-width="2.5" stroke-linecap="round"/>
  <path d="M918 202H948" stroke="#FFB26E" stroke-width="2.5" stroke-linecap="round"/>
  <path d="M918 234H948" stroke="#FFB26E" stroke-width="2.5" stroke-linecap="round"/>
  <path d="M918 244C938 244 948 252 948 268" stroke="#FFB26E" stroke-width="2.5" stroke-linecap="round"/>
  <path d="M918 244C938 244 948 292 948 334" stroke="#FFB26E" stroke-width="2.5" stroke-linecap="round"/>

  <rect x="712" y="394" width="340" height="110" rx="22" fill="#0C1D2D" stroke="#84BBC6" stroke-opacity="0.22"/>
  <text x="740" y="426" fill="#8FBFCA" font-size="16" font-weight="700" font-family="'SF Pro Text','PingFang SC','Microsoft YaHei',sans-serif">Desired → Runtime → Observe → Replan</text>

  <g filter="url(#soft)">
    <rect x="740" y="446" width="78" height="34" rx="12" fill="#13293E" stroke="#4FD0C6" stroke-opacity="0.4"/>
    <text x="760" y="468" fill="#D7E9F2" font-size="14" font-weight="600" font-family="'SF Pro Text','PingFang SC','Microsoft YaHei',sans-serif">Goal</text>

    <rect x="842" y="446" width="86" height="34" rx="12" fill="#13293E" stroke="#4FD0C6" stroke-opacity="0.4"/>
    <text x="861" y="468" fill="#D7E9F2" font-size="14" font-weight="600" font-family="'SF Pro Text','PingFang SC','Microsoft YaHei',sans-serif">Planner</text>

    <rect x="954" y="446" width="72" height="34" rx="12" fill="#2A211C" stroke="#FFB26E" stroke-opacity="0.4"/>
    <text x="972" y="468" fill="#F6E1CE" font-size="14" font-weight="600" font-family="'SF Pro Text','PingFang SC','Microsoft YaHei',sans-serif">Gate</text>
  </g>

  <path d="M818 463H840" stroke="#54D3C8" stroke-width="2.5" stroke-linecap="round"/>
  <path d="M928 463H952" stroke="#54D3C8" stroke-width="2.5" stroke-linecap="round"/>

  <circle cx="775" cy="500" r="8" fill="#51D4C9"/>
  <text x="794" y="506" fill="#9AC1D0" font-size="14" font-weight="600" font-family="'SF Pro Text','PingFang SC','Microsoft YaHei',sans-serif">任务拆分</text>
  <circle cx="878" cy="500" r="8" fill="#FFD26D"/>
  <text x="897" y="506" fill="#D9E7EF" font-size="14" font-weight="600" font-family="'SF Pro Text','PingFang SC','Microsoft YaHei',sans-serif">上下文裁剪</text>
  <circle cx="1004" cy="500" r="8" fill="#FF7C67"/>
  <text x="1023" y="506" fill="#D9E7EF" font-size="14" font-weight="600" font-family="'SF Pro Text','PingFang SC','Microsoft YaHei',sans-serif">失败恢复</text>
</svg>
